<svg xmlns="http://www.w3.org/2000/svg" xmlns:xlink="http://www.w3.org/1999/xlink" xml:space="preserve" version="1.1" style="shape-rendering:geometricPrecision;text-rendering:geometricPrecision;image-rendering:optimizeQuality;" viewBox="0 0 847 1058.75" x="0px" y="0px" fill-rule="evenodd" clip-rule="evenodd"><defs><style type="text/css">
   
    .fil0 {fill:black}
   
  </style></defs><g><path class="fil0" d="M526 585c-47,-51 0,-90 0,-131 0,-39 -33,-72 -78,-82 0,-28 -5,-230 7,-239 6,-2 11,-9 11,-16l0 -74c0,-27 -86,-27 -86,0l0 74c0,7 5,14 11,16 13,10 7,211 7,239 -45,10 -78,43 -78,82 0,50 44,55 -1,132 -286,322 497,314 207,-1z"/></g><text x="0" y="862" fill="#000000" font-size="5px" font-weight="bold" font-family="'Helvetica Neue', Helvetica, Arial-Unicode, Arial, Sans-serif">Created by buheicon</text><text x="0" y="867" fill="#000000" font-size="5px" font-weight="bold" font-family="'Helvetica Neue', Helvetica, Arial-Unicode, Arial, Sans-serif">from the Noun Project</text></svg>