<svg xmlns="http://www.w3.org/2000/svg" xmlns:xlink="http://www.w3.org/1999/xlink" version="1.1" x="0px" y="0px" viewBox="0 0 32 38.75" style="enable-background:new 0 0 32 31;" xml:space="preserve"><g><path d="M29.714,4H28V2.119C28,0.869,27.003,0,25.752,0H6.264C5.014,0,4,0.869,4,2.119V4H2.536C1.273,4,0,4.996,0,6.244v22.497   C0,29.988,1.273,31,2.536,31h27.178C30.977,31,32,29.988,32,28.741V6.244C32,4.996,30.977,4,29.714,4z M28,14.834   C28,15.478,27.478,16,26.834,16H5.166C4.522,16,4,15.478,4,14.834V8.166C4,7.522,4.522,7,5.166,7h21.668   C27.478,7,28,7.522,28,8.166V14.834z"/><circle cx="8.527" cy="11.584" r="2.464"/><path d="M17.463,9.023c-1.363,0-2.473,1.109-2.473,2.472s1.109,2.472,2.473,2.472c1.361,0,2.471-1.109,2.471-2.472   S18.824,9.023,17.463,9.023z M17.463,12.994c-0.826,0-1.499-0.673-1.499-1.499s0.673-1.499,1.499-1.499   c0.825,0,1.497,0.673,1.497,1.499S18.288,12.994,17.463,12.994z"/><path d="M23.534,9.023c-1.382,0-2.505,1.123-2.505,2.505s1.123,2.506,2.505,2.506s2.506-1.124,2.506-2.506   S24.916,9.023,23.534,9.023z M23.534,13.047c-0.837,0-1.519-0.681-1.519-1.519c0-0.837,0.682-1.519,1.519-1.519   c0.838,0,1.519,0.682,1.519,1.519C25.053,12.366,24.372,13.047,23.534,13.047z"/></g><text x="0" y="46" fill="#000000" font-size="5px" font-weight="bold" font-family="'Helvetica Neue', Helvetica, Arial-Unicode, Arial, Sans-serif">Created by Yo! Baba</text><text x="0" y="51" fill="#000000" font-size="5px" font-weight="bold" font-family="'Helvetica Neue', Helvetica, Arial-Unicode, Arial, Sans-serif">from the Noun Project</text></svg>