<svg xmlns="http://www.w3.org/2000/svg" xmlns:xlink="http://www.w3.org/1999/xlink" xml:space="preserve" version="1.1" style="shape-rendering:geometricPrecision;text-rendering:geometricPrecision;image-rendering:optimizeQuality;" viewBox="0 0 847 1058.75" x="0px" y="0px" fill-rule="evenodd" clip-rule="evenodd"><defs><style type="text/css">
   
    .fil0 {fill:black}
   
  </style></defs><g><path class="fil0" d="M325 348c-57,34 -41,87 -26,143 15,55 22,72 -6,125 -147,284 322,237 287,83 9,-2 -73,-112 -28,-179 48,-71 -9,-103 -9,-103 1,108 -96,115 -102,10 -3,-64 -3,-131 -5,-195 -1,-26 21,-33 21,-33 -26,-42 -11,-157 -11,-157 -31,-52 -15,29 -51,9l-22 152c14,5 20,12 23,17l-6 227c-32,56 -82,-32 -65,-99z"/></g><text x="0" y="862" fill="#000000" font-size="5px" font-weight="bold" font-family="'Helvetica Neue', Helvetica, Arial-Unicode, Arial, Sans-serif">Created by buheicon</text><text x="0" y="867" fill="#000000" font-size="5px" font-weight="bold" font-family="'Helvetica Neue', Helvetica, Arial-Unicode, Arial, Sans-serif">from the Noun Project</text></svg>